PathFileType	4	(X/Y/Z)	C:\Users\Basilio\Documents\Thesis Gigler\squatting_fais\c3dfiles\058\SJ_pre3\markers_experimental.trc
DataRate	CameraRate	NumFrames	NumMarkers	Units	OrigDataRate	OrigDataStartFrame	OrigNumFrames
200.000000	200.000000	4	61	mm	200.000000	700	1400
Frame#	Time	FHD			LBHD			RBHD			C7			T10			CLAV			LSHO			LUUPA			LMUPA			LDUPA			LLEP			LMEP			LRAD			LUL			LRFIN			RSHO			RUPA1			RMUPA			RDUPA			RLEP			RMEP			RRAD			RUL			RUFIN			LASI			RASI			USACR			LSACR			RSACR			LTHI1			LTHI2			LTHI3			LTHI4			LLFC			LMFC			LTIB1			LTIB2			LTIB3			LTIB4			LLMAL			LMMAL			LHEE			LMT1			LMT2			LMT5			RTHI			RTHI2			RTHI3			RTHI4			RLFC			RMFC			RTIB1			RTIB2			RTIB3			RTIB4			RLMAL			RMMAL			RHEE			RMT1			RMT2			RMT5			
		X1	Y1	Z1	X2	Y2	Z2	X3	Y3	Z3	X4	Y4	Z4	X5	Y5	Z5	X6	Y6	Z6	X7	Y7	Z7	X8	Y8	Z8	X9	Y9	Z9	X10	Y10	Z10	X11	Y11	Z11	X12	Y12	Z12	X13	Y13	Z13	X14	Y14	Z14	X15	Y15	Z15	X16	Y16	Z16	X17	Y17	Z17	X18	Y18	Z18	X19	Y19	Z19	X20	Y20	Z20	X21	Y21	Z21	X22	Y22	Z22	X23	Y23	Z23	X24	Y24	Z24	X25	Y25	Z25	X26	Y26	Z26	X27	Y27	Z27	X28	Y28	Z28	X29	Y29	Z29	X30	Y30	Z30	X31	Y31	Z31	X32	Y32	Z32	X33	Y33	Z33	X34	Y34	Z34	X35	Y35	Z35	X36	Y36	Z36	X37	Y37	Z37	X38	Y38	Z38	X39	Y39	Z39	X40	Y40	Z40	X41	Y41	Z41	X42	Y42	Z42	X43	Y43	Z43	X44	Y44	Z44	X45	Y45	Z45	X46	Y46	Z46	X47	Y47	Z47	X48	Y48	Z48	X49	Y49	Z49	X50	Y50	Z50	X51	Y51	Z51	X52	Y52	Z52	X53	Y53	Z53	X54	Y54	Z54	X55	Y55	Z55	X56	Y56	Z56	X57	Y57	Z57	X58	Y58	Z58	X59	Y59	Z59	X60	Y60	Z60	X61	Y61	Z61	

701	3.5	99.26340484619143	1112.3642578125	-832.2261352539065	-66.36423492431642	1084.138427734375	-898.1445312500002	105.0623779296875	1122.913696289063	-974.3692626953127	-109.4612197875977	1020.418334960938	-920.5262451171877	-368.0046997070313	872.438659667969	-906.3272094726565	-28.16870307922364	868.7966308593752	-899.528503417969	10.38901329040528	898.5566406250002	-1061.988159179688	-138.9923706054688	913.0037841796877	-1240.813232421875	-159.3368835449219	866.4044189453127	-1242.2119140625	-193.3438720703126	897.120544433594	-1280.162475585938	-277.8579101562501	878.6516723632815	-1313.878173828125	-315.2751770019532	935.5391845703127	-1272.380126953125	-432.0504455566407	774.281433105469	-1107.856079101563	-446.6246337890626	710.3467407226564	-1156.5048828125	-378.5146789550782	735.2794799804689	-1083.200561523438	1.20290207862854	927.9978637695315	-738.6125488281251	-161.6930084228516	971.633972167969	-584.2333374023439	-181.7403259277344	925.4536743164065	-579.9570922851564	-220.7654113769532	955.929626464844	-547.4224243164064	-288.8464355468751	956.882507324219	-516.3120727539064	-339.8570861816407	994.6556396484377	-581.4406738281251	-405.4326477050782	779.982360839844	-689.2280273437501	-406.5587768554689	728.9503173828126	-626.6650390625001	-365.2326965332032	721.2546997070314	-723.3126220703126	-408.9361267089845	610.9365234375001	-1016.005981445313	nan	nan	nan	-491.1173706054689	798.4209594726565	-895.5291137695315	-520.2847290039064	781.0428466796877	-922.5432739257815	-520.2707519531251	781.8118896484377	-865.6472167968752	-337.6927795410157	577.2469482421876	-1140.408935546875	-253.3739318847657	567.0869140625001	-1156.847534179688	-226.5462951660157	599.0385131835939	-1129.815063476563	-223.2097930908204	514.6949462890626	-1167.264282226563	-151.0458526611328	466.1493225097657	-1170.780151367188	-118.9378967285157	451.0529174804689	-1052.150634765625	-123.51904296875	329.3813171386719	-1143.848876953125	-195.8855285644532	326.0064086914063	-1192.75390625	-162.0780029296875	301.2290039062501	-1173.360107421875	-205.0108337402344	231.4269104003907	-1145.502563476563	-348.5556335449219	89.75154876708986	-1152.217041015625	-313.2684631347657	94.4748992919922	-1067.233276367188	-413.7366333007814	50.60141754150392	-1098.403198242188	-187.9508361816407	62.53168106079103	-1115.14501953125	-191.6618804931641	60.35119247436525	-1161.702880859375	-245.3728485107422	35.73649597167969	-1210.272827148438	-430.8655090332032	574.0294189453126	-666.1306762695314	-366.2831420898438	584.8389892578126	-654.6517944335939	-349.2994384765626	612.4630126953126	-660.9610595703126	-308.9341735839844	525.4553833007814	-642.0925292968751	-174.3860626220703	455.6600952148439	-624.1938476562501	-123.5375061035157	448.0157775878907	-747.2553710937501	-174.5595703125	276.1604614257813	-703.6857299804689	-250.5132904052735	224.8677368164063	-640.5068359375001	-218.7864837646485	206.0318908691407	-669.2142944335939	-242.6134490966797	168.7908020019532	-705.9101562500001	-344.1056518554688	93.32240295410158	-668.4876098632814	-301.3176269531251	98.94228363037112	-751.6405029296876	-408.1723022460939	51.58158111572267	-733.5202636718751	-193.8486633300782	55.02324676513673	-688.9188842773439	-204.2387847900391	61.52595138549806	-637.4973144531251	-257.9550476074219	28.16195297241212	-594.6489868164064	
702	3.505	99.27899169921878	1112.10693359375	-832.1038818359377	-66.33721160888673	1084.04931640625	-897.8674316406252	105.0871887207032	1122.852294921875	-974.2088623046877	-109.2274398803711	1020.701416015625	-920.3229980468752	-367.8172302246094	872.4012451171877	-906.2402343750002	-28.1140480041504	868.7764282226565	-899.4038085937502	10.46530818939209	898.5410156250002	-1061.942993164063	-138.7957611083985	913.0056152343752	-1240.709350585938	-159.29345703125	866.4472656250002	-1242.1181640625	-193.1303863525391	897.1914672851565	-1280.120239257813	-277.5934753417969	878.7224731445315	-1313.773559570313	-315.0843200683594	935.5994262695315	-1272.305419921875	-431.8966064453126	774.3845214843752	-1107.756591796875	-446.4812011718751	710.4240722656251	-1156.41259765625	-378.5527038574219	735.1968383789064	-1082.960815429688	1.236814498901367	927.9114379882815	-738.4567871093751	-161.3822631835938	971.5123291015627	-584.1367187500001	-181.656478881836	925.3128662109377	-579.7753295898439	-220.6351776123047	955.8503417968752	-547.2897949218751	-288.8556823730469	956.6961059570315	-516.2109985351564	-339.7728881835938	994.5122680664065	-581.2376098632814	-405.3690490722657	779.8919067382815	-689.1560058593751	-406.5040893554689	728.9061279296876	-626.5926513671876	-365.0777282714844	721.2904052734376	-723.1346435546876	-407.9473266601564	611.1896972656251	-1015.726989746094	nan	nan	nan	-490.9838867187501	798.4399414062502	-895.4354248046877	-520.1203002929689	780.8748779296877	-922.481384277344	-520.1350097656251	781.690124511719	-865.5327148437502	-337.6419067382813	577.2554321289064	-1140.321411132813	-253.7036743164063	567.5624389648439	-1156.674682617188	-226.4656524658204	599.0378417968751	-1129.761474609375	-223.0836944580079	514.6741943359376	-1167.17822265625	-150.9420928955078	465.7344360351564	-1170.783325195313	-118.7353591918946	450.8515625000001	-1052.025756835938	-123.4615554809571	329.3363952636719	-1143.834350585938	-195.8352661132813	325.9804077148438	-1192.721069335938	-161.9390411376953	301.3041992187501	-1173.350463867188	-204.9568634033204	231.4362182617188	-1145.506103515625	-348.5251770019532	89.74547576904298	-1152.176391601563	-313.3104248046876	94.4594192504883	-1067.20849609375	-413.705047607422	50.62031555175783	-1098.376708984375	-187.9762420654297	62.54114913940431	-1115.170166015625	-191.6434936523438	60.32210540771486	-1161.707275390625	-245.6047363281251	36.01641082763673	-1210.209228515625	-430.7656555175782	574.0125732421876	-666.0736694335939	-366.2365112304688	584.8455810546876	-654.5674438476564	-349.2428588867188	612.4263916015626	-660.9208984375001	-308.8804931640626	525.3153076171876	-642.0727539062501	-174.3599700927735	455.603729248047	-624.1475830078126	-123.4220199584961	447.9429931640626	-747.2860717773439	-174.5648345947266	276.0991821289063	-703.6800537109376	-250.4810028076172	224.8189849853516	-640.5079956054689	-218.7360992431641	206.0537109375001	-669.2726440429689	-242.5419311523438	168.7146148681641	-705.9808959960939	-344.1110229492188	93.31755828857423	-668.5188598632814	-301.2946777343751	98.95572662353518	-751.6569213867189	-408.1571655273439	51.61938476562501	-733.5355224609376	-193.8194580078126	55.0292091369629	-688.8910522460939	-204.2286682128907	61.52773284912111	-637.5274047851564	-257.8741149902344	28.22319984436036	-594.6132202148439	
703	3.51	99.61528015136722	1112.078002929688	-831.9382324218752	-66.7313919067383	1083.206298828125	-897.6321411132815	105.2495269775391	1122.770874023438	-974.0344238281252	-109.1265640258789	1020.629089355469	-920.183288574219	-367.5924987792969	872.3543090820315	-906.160583496094	-28.03221511840821	868.5962524414065	-899.290466308594	10.56012058258057	898.4875488281252	-1061.816528320313	-138.6824035644532	912.9782714843752	-1240.611938476563	-159.2071838378907	866.4111938476565	-1242.00048828125	-193.0261230468751	897.2027587890627	-1280.0126953125	-277.4943847656251	878.7299804687502	-1313.743408203125	-314.9363098144532	935.6567382812502	-1272.204711914063	-431.7557067871095	774.3396606445315	-1107.69287109375	-446.3411865234376	710.4642333984376	-1156.35009765625	-378.3984375000001	735.2003784179689	-1082.9384765625	1.295381546020508	927.8562622070315	-738.3234863281251	-161.288818359375	971.342956542969	-584.0187377929689	-181.6981353759766	925.0339355468752	-579.6325683593751	-220.5308532714844	955.7229614257815	-547.1400756835939	-288.7736816406251	956.5958251953127	-516.0393676757814	-339.7229309082032	994.362731933594	-581.1119384765626	-405.3353576660157	779.8536376953127	-689.0643920898439	-406.5635681152345	728.7565307617189	-626.5018310546876	-364.7828369140626	721.0867309570314	-723.0701904296876	-407.9996032714845	611.3286132812501	-1015.987670898438	nan	nan	nan	-490.9265136718751	798.4410400390627	-895.3322753906252	-520.0880126953126	780.898864746094	-922.440856933594	-519.9616699218751	781.688903808594	-865.4666748046877	-337.5130920410157	577.2246704101564	-1140.285766601563	-253.6139526367188	567.5556640625001	-1156.650024414063	-226.3412322998047	599.0037841796876	-1129.692504882813	-223.0591278076172	514.6126708984376	-1167.158325195313	-150.9093780517578	465.7594604492189	-1170.655883789063	-118.5243301391602	450.8690795898439	-1051.892578125	-123.5565261840821	329.3943481445313	-1143.814453125	-195.8005065917969	325.9837951660157	-1192.6474609375	-161.9326934814453	301.3776245117188	-1173.259887695313	-204.8607788085938	231.5991516113282	-1145.470092773438	-348.5690307617188	89.73110198974611	-1152.190063476563	-313.1977539062501	94.46413421630861	-1067.232055664063	-413.7176818847657	50.6338233947754	-1098.405029296875	-187.9538726806641	62.55223464965822	-1115.133666992188	-191.6802978515625	60.30412673950197	-1161.703979492188	-245.613021850586	36.0227279663086	-1210.154052734375	-430.7137756347657	573.9957885742189	-666.0469360351564	-366.2007751464844	584.8214721679689	-654.5240478515626	-349.1537170410157	612.3494262695314	-660.8314819335939	-308.7756347656251	525.2641601562501	-642.0886230468751	-174.3390655517578	455.546844482422	-624.1287841796876	-123.2785339355469	447.9735412597657	-747.2736816406251	-174.4994659423828	276.0878906250001	-703.6589355468751	-250.4361724853516	224.7937774658204	-640.5202636718751	-218.6433410644532	206.0433807373047	-669.2932739257814	-242.5433959960938	168.690673828125	-705.9736328125001	-344.1043090820313	93.32491302490236	-668.5120239257814	-301.2976379394532	98.95073699951175	-751.6571655273439	-407.9917602539064	51.59138107299806	-733.5822753906251	-193.8152923583985	55.03344345092775	-688.8860473632814	-204.2170867919922	61.49607467651369	-637.5194702148439	-257.9718933105469	28.15665245056153	-594.6514282226564	
704	3.515	99.65342712402347	1111.763305664063	-831.8037109375002	-66.29455566406251	1083.941040039063	-897.4440917968752	105.4047088623047	1122.71240234375	-973.9168701171877	-109.009750366211	1020.570983886719	-920.0140380859377	-367.4348449707032	872.265319824219	-906.0333251953127	-27.96674728393555	868.5179443359377	-899.151550292969	10.72186851501465	898.522399902344	-1061.6982421875	-138.5797729492188	913.0739746093752	-1240.490234375	-159.2008972167969	866.3757324218752	-1241.884033203125	-193.0751342773438	897.1857910156252	-1279.95703125	-277.3894958496094	879.2404785156252	-1313.458374023438	-314.7819519042969	935.7039794921877	-1272.1357421875	-431.709442138672	774.2556762695315	-1107.541625976563	-446.2415771484376	710.5033569335939	-1156.2705078125	-377.8647155761719	735.3603515625001	-1083.153930664063	1.409883618354798	927.5865478515627	-738.1723632812501	-161.2076110839844	971.0913696289065	-583.7808837890626	-181.6327667236328	925.0093383789065	-579.5073242187501	-220.4393615722657	955.560241699219	-546.9786376953126	-288.6947326660157	956.470642089844	-515.8095092773439	-339.6212463378907	994.2462158203127	-580.9498901367189	-405.2830505371095	779.651550292969	-688.9848022460939	-406.6585388183595	728.5947875976564	-626.3809814453126	-364.4440917968751	720.9840698242189	-722.8020019531251	-408.0617065429689	611.3405761718751	-1016.113586425781	nan	nan	nan	-490.7711486816407	798.4515380859377	-895.283630371094	-520.0620727539064	780.8693847656252	-922.3184814453127	-519.8911132812501	781.6164550781252	-865.3947753906252	-337.3960876464844	577.2309570312501	-1140.236572265625	-253.1135711669922	566.9483642578126	-1156.664306640625	-226.3439636230469	598.9836425781251	-1129.671997070313	-223.0314636230469	514.5806884765626	-1167.09521484375	-150.7979125976563	465.7908325195314	-1170.642578125	-118.4412384033203	450.7300720214845	-1051.821166992188	-123.4339981079102	329.3144836425782	-1143.74609375	-195.7288818359376	326.0021972656251	-1192.635131835938	-161.926025390625	301.3342895507813	-1173.2607421875	-204.7566528320313	231.292465209961	-1145.44921875	-348.5446472167969	89.75133514404298	-1152.18505859375	-313.2571716308594	94.49678802490236	-1067.1806640625	-413.7285766601564	50.59096527099611	-1098.406127929688	-187.9390869140625	62.55367279052736	-1115.131225585938	-191.6685180664063	60.31958007812501	-1161.718139648438	-245.5839385986329	36.03081130981446	-1210.168090820313	-430.7125244140626	573.9758300781251	-666.0559692382814	-366.1614074707032	584.7171020507814	-654.4774169921876	-349.1200256347657	612.3761596679689	-660.7922973632814	-308.5580139160157	525.2512207031251	-642.1389770507814	-174.3065338134766	455.531951904297	-624.1390380859376	-123.2901840209961	447.9221496582032	-747.2770385742189	-174.4759216308594	276.0813598632813	-703.6505737304689	-250.4092864990235	224.7987518310547	-640.5104370117189	-218.6119232177735	206.0481872558594	-669.2844848632814	-242.5179595947266	168.6953735351563	-705.9739990234376	-344.0878295898438	93.3214797973633	-668.5430297851564	-301.2444763183594	98.95920562744143	-751.6483764648439	-408.0934143066407	51.5431251525879	-733.5239868164064	-193.8421936035157	55.00332260131837	-688.9248046875001	-204.2414245605469	61.51331329345705	-637.5320434570314	-257.8986511230469	28.25390625000001	-594.6391601562501	
